:SAMPLES-PER-SECOND 30
:FULLY-SPECIFIED
:DEGREES
98
root  34.92953383 36.52401121 -14.80316703 9.189477921 -1.560824752 3.181889296
lowerback  -8.416380882 0.523657918 0.1973966658
upperback  -3.774199963 1.152359962 -3.511539936
thorax  0.8863570094 0.7270640135 -3.635720015
lowerneck  -14.60319996 0.2652449906 1.14131999
upperneck  15.69340038 -1.36717999 6.028399944
head  7.273029804 -0.1756180227 1.618529916
lclavicle  0 -4.497500157e-015 -2.743230041e-014
lhumerus  -44.90209961 26.0781002 68.75640106
lradius  -0.01160157379 -6.507048965e-006 29.4260025
lwrist  4.824992743e-007 -3.790274832e-007 -27.60210037
lhand  -4.421331342e-031 -36.9980011 -10.61380005
lfingers  90 7.125020027 -90
lthumb  94.84887814 -25.44722039 101.1682619
rclavicle  0 -4.497500157e-015 -2.743230041e-014
rhumerus  1.040059686 22.46229935 -71.28540039
rradius  -5.16745672e-007 2.214343908e-008 93.56690216
rwrist  -3.062178075e-005 0.01868772879 -178.5299988
rhand  -1.770404001e-031 4.238279819 -6.695139885
rfingers  -90 -7.125020027 -90
rthumb  -84.68448373 -9.24609588 -59.92666512
rfemur  -12.44407272 15.39403915 13.37804604
rtibia  -0.9481472373 0.02982129715 20.8259697
rfoot  -0.2519434094 -20.26403999 -38.34877014
rtoes  4.174742371 19.57690822 -102.2893462
lfemur  -9.216965675 -17.60190964 -19.21963882
ltibia  2.091859341 0.2029023319 15.15826416
lfoot  0.56597054 -25.94870186 35.66682434
ltoes  -8.468054107 -18.18570479 -115.5026884
99
root  34.93195782 36.5231131 -14.80011978 9.208177567 -1.530206442 3.175039768
lowerback  -8.396929741 0.5401850343 0.2019813061
upperback  -3.793450117 1.174769998 -3.51177001
thorax  0.8572520018 0.7385150194 -3.636929989
lowerneck  -14.58710003 0.2556020021 1.149080038
upperneck  15.67580032 -1.382349968 6.037059784
head  7.264979839 -0.1824339628 1.618260026
lclavicle  0 -4.497500157e-015 -2.743230041e-014
lhumerus  -44.92720032 26.1432991 68.71099854
lradius  -0.01214808784 -6.507048965e-006 29.39720154
lwrist  4.824992743e-007 -3.790274832e-007 -27.71759987
lhand  -0 -37.04859924 -10.65470028
lfingers  90 7.125020027 -90
lthumb  94.88130163 -25.48556652 101.2260135
rclavicle  0 -4.497500157e-015 -2.743230041e-014
rhumerus  2.751259327 22.61319923 -70.66069794
rradius  -5.16745672e-007 2.214343908e-008 93.38729858
rwrist  -3.062178075e-005 0.0186279621 -178.602005
rhand  -1.770559926e-031 4.305830002 -6.661159992
rfingers  -90 -7.125020027 -90
rthumb  -84.6509503 -9.279388127 -59.85798257
rfemur  -12.44545937 15.39665413 13.37640762
rtibia  -0.9409478307 0.03754779696 20.79292679
rfoot  -0.2420324981 -20.23351097 -38.37459564
rtoes  4.164597786 19.57898771 -102.2590719
lfemur  -9.244122505 -17.54853821 -19.20260239
ltibia  2.090978622 0.2436639518 15.17350769
lfoot  0.5832571387 -26.04163361 35.63414383
ltoes  -8.454794545 -18.19170826 -115.4602099
100
root  34.93512071 36.52273463 -14.79748103 9.231280327 -1.506644487 3.168236971
lowerback  -8.380960464 0.5713100433 0.2476515025
upperback  -3.829560041 1.215229988 -3.522850037
thorax  0.8146550059 0.7590770125 -3.671230078
lowerneck  -14.52340031 0.2335779965 1.158579946
upperneck  15.66940022 -1.406489968 6.005410194
head  7.252039909 -0.197745055 1.603469849
lclavicle  0 -4.497500157e-015 -2.743230041e-014
lhumerus  -44.97109985 26.14830017 68.66470337
lradius  -0.01270047761 -6.507048965e-006 29.3416996
lwrist  4.824992743e-007 -3.790274832e-007 -27.8355999
lhand  -4.424510343e-031 -37.05260086 -10.66870022
lfingers  90 7.125020027 -90
lthumb  94.88621767 -25.49916291 101.2316364
rclavicle  0 -4.497500157e-015 -2.743230041e-014
rhumerus  4.474680901 22.63120079 -70.14320374
rradius  -5.16745672e-007 2.214343908e-008 92.98600006
rwrist  -3.062178075e-005 0.01856820099 -178.3769989
rhand  -1.770450897e-031 4.258709908 -6.59758997
rfingers  -90 -7.125020027 -90
rthumb  -84.63000122 -9.331673117 -59.89870954
rfemur  -12.44366074 15.41946316 13.37426949
rtibia  -0.9328942895 0.06130322069 20.76117516
rfoot  -0.2221337259 -20.16114616 -38.39640427
rtoes  4.195169672 19.57270478 -102.3503164
lfemur  -9.291461945 -17.55296516 -19.18344116
ltibia  2.078649998 0.2429193556 15.22052479
lfoot  0.5908919573 -26.05913925 35.60626602
ltoes  -8.496603157 -18.17273913 -115.5941945
101
root  34.93565537 36.52224203 -14.79229664 9.23452282 -1.457127571 3.168142557
lowerback  -8.356640816 0.570964992 0.2705051601
upperback  -3.853130102 1.214750051 -3.533410072
thorax  0.7773889899 0.7591000199 -3.695830107
lowerneck  -14.55659962 0.2676559985 1.287389994
upperneck  15.70230007 -1.376129985 5.920979977
head  7.266739845 -0.1817429513 1.558259964
lclavicle  0 -4.497500157e-015 -2.743230041e-014
lhumerus  -44.97200012 26.16110039 68.61029816
lradius  -0.01325870585 -6.507048965e-006 29.3064003
lwrist  4.824992743e-007 -3.790274832e-007 -27.89310074
lhand  -0 -37.03239822 -10.66709995
lfingers  90 7.125020027 -90
lthumb  94.87641191 -25.49836945 101.2098786
rclavicle  0 -4.497500157e-015 -2.743230041e-014
rhumerus  6.310132027 22.67550087 -69.31659698
rradius  -5.16745672e-007 2.214343908e-008 92.70950317
rwrist  -3.062178075e-005 0.01850844175 -178.4299927
rhand  -1.770610053e-031 4.327320099 -6.290150166
rfingers  -90 -7.125020027 -90
rthumb  -84.45665499 -9.60138075 -59.80588321
rfemur  -12.43332005 15.33614349 13.37275696
rtibia  -0.9284333587 0.04086657241 20.7514019
rfoot  -0.2296084762 -20.20648193 -38.38901138
rtoes  4.193254943 19.5730997 -102.3446009
lfemur  -9.263946533 -17.58824158 -19.199543
ltibia  2.10373354 0.2565868795 15.18660641
lfoot  0.5919581056 -26.07566643 35.59737778
ltoes  -8.447187085 -18.19514739 -115.4358446
